<svg width="20" height="20" viewBox="0 0 20 20" fill="none" xmlns="http://www.w3.org/2000/svg">
<g id="placeholder">
<path id="Vector" d="M9.99998 16.6666C8.13887 16.6666 6.56248 16.0208 5.27081 14.7291C3.97915 13.4375 3.33331 11.8611 3.33331 9.99998C3.33331 8.13887 3.97915 6.56248 5.27081 5.27081C6.56248 3.97915 8.13887 3.33331 9.99998 3.33331C10.9583 3.33331 11.875 3.53123 12.75 3.92706C13.625 4.3229 14.375 4.88887 15 5.62498V3.33331H16.6666V9.16665H10.8333V7.49998H14.3333C13.8889 6.7222 13.2812 6.11109 12.5104 5.66665C11.7396 5.2222 10.9028 4.99998 9.99998 4.99998C8.61109 4.99998 7.43054 5.48609 6.45831 6.45831C5.48609 7.43054 4.99998 8.61109 4.99998 9.99998C4.99998 11.3889 5.48609 12.5694 6.45831 13.5416C7.43054 14.5139 8.61109 15 9.99998 15C11.0694 15 12.0347 14.6944 12.8958 14.0833C13.7569 13.4722 14.3611 12.6666 14.7083 11.6666H16.4583C16.0694 13.1389 15.2778 14.3403 14.0833 15.2708C12.8889 16.2014 11.5278 16.6666 9.99998 16.6666Z" fill="#667085"/>
</g>
</svg>
